<svg style="display: none" xmlns="http://www.w3.org/2000/svg">
    <symbol id="nav" viewBox="0 0 24 24">
        <path d="M4 6h16v2H4zm4 5h12v2H8zm5 5h7v2h-7z" fill="white"></path>
    </symbol>
    <symbol id="bell" viewBox="0 0 24 24">
       <path d="M19 13.586V10c0-3.217-2.185-5.927-5.145-6.742C13.562 2.52 12.846 2 12 2s-1.562.52-1.855 1.258C7.185 4.074 5 6.783 5 10v3.586l-1.707 1.707A.996.996 0 0 0 3 16v2a1 1 0 0 0 1 1h16a1 1 0 0 0 1-1v-2a.996.996 0 0 0-.293-.707L19 13.586zM19 17H5v-.586l1.707-1.707A.996.996 0 0 0 7 14v-4c0-2.757 2.243-5 5-5s5 2.243 5 5v4c0 .266.105.52.293.707L19 16.414V17zm-7 5a2.98 2.98 0 0 0 2.818-2H9.182A2.98 2.98 0 0 0 12 22z" fill="white">
    </path></symbol>
    <symbol id="search" viewBox="0 0 24 24">
        <path d="M10 18a7.952 7.952 0 0 0 4.897-1.688l4.396 4.396 1.414-1.414-4.396-4.396A7.952 7.952 0 0 0 18 10c0-4.411-3.589-8-8-8s-8 3.589-8 8 3.589 8 8 8zm0-14c3.309 0 6 2.691 6 6s-2.691 6-6 6-6-2.691-6-6 2.691-6 6-6z" fill="white"></path>
    </symbol>
    <symbol id="play" viewBox="0 0 24 24">
        <path d="M7 6v12l10-6z" fill="white"></path>
    </symbol>
</svg> 