<svg style="display: none" xmlns="http://www.w3.org/2000/svg">
    <symbol id="nav" viewBox="0 0 24 24">
        <path d="M4 6h16v2H4zm4 5h12v2H8zm5 5h7v2h-7z" fill="white"></path>
    </symbol>
    <symbol id="bell" viewBox="0 0 24 24">
       <path d="M19 13.586V10c0-3.217-2.185-5.927-5.145-6.742C13.562 2.52 12.846 2 12 2s-1.562.52-1.855 1.258C7.185 4.074 5 6.783 5 10v3.586l-1.707 1.707A.996.996 0 0 0 3 16v2a1 1 0 0 0 1 1h16a1 1 0 0 0 1-1v-2a.996.996 0 0 0-.293-.707L19 13.586zM19 17H5v-.586l1.707-1.707A.996.996 0 0 0 7 14v-4c0-2.757 2.243-5 5-5s5 2.243 5 5v4c0 .266.105.52.293.707L19 16.414V17zm-7 5a2.98 2.98 0 0 0 2.818-2H9.182A2.98 2.98 0 0 0 12 22z" fill="white">
    </path></symbol>
    <symbol id="search" viewBox="0 0 24 24">
        <path d="M10 18a7.952 7.952 0 0 0 4.897-1.688l4.396 4.396 1.414-1.414-4.396-4.396A7.952 7.952 0 0 0 18 10c0-4.411-3.589-8-8-8s-8 3.589-8 8 3.589 8 8 8zm0-14c3.309 0 6 2.691 6 6s-2.691 6-6 6-6-2.691-6-6 2.691-6 6-6z" fill="white"></path>
    </symbol>
    <symbol id="play" viewBox="0 0 24 24">
        <path d="M7 6v12l10-6z" fill="white"></path>
    </symbol>
    <symbol id="arrow-right" viewBox="0 0 24 24">
        <path d="m11.293 17.293 1.414 1.414L19.414 12l-6.707-6.707-1.414 1.414L15.586 11H6v2h9.586z" fill="white"></path>
    </symbol>
    <symbol id="phoneicon" viewBox="0 0 24 24">
        <path d="M16.75 2h-10c-1.103 0-2 .897-2 2v16c0 1.103.897 2 2 2h10c1.103 0 2-.897 2-2V4c0-1.103-.897-2-2-2zm-10 18V4h10l.002 16H6.75z"></path> 
        <circle cx="11.75" cy="18" r="1"></circle> 
    </symbol>
    <symbol id="tablet" viewBox="0 0 24 24">
        <path d="M6 2c-1.103 0-2 .897-2 2v16c0 1.103.897 2 2 2h12c1.103 0 2-.897 2-2V4c0-1.103-.897-2-2-2H6zm0 15V5h12l.002 12H6z"></path>
    </symbol>
    <symbol id="TV" viewBox="0 0 24 24">
        <path d="M20 6h-5.586l2.293-2.293-1.414-1.414L12 5.586 8.707 2.293 7.293 3.707 9.586 6H4c-1.103 0-2 .897-2 2v11c0 1.103.897 2 2 2h16c1.103 0 2-.897 2-2V8c0-1.103-.897-2-2-2zM4 19V8h16l.002 11H4z"></path>
    </symbol>
    <symbol id="laptop" viewBox="0 0 24 24">
        <path d="M20 17.722c.595-.347 1-.985 1-1.722V5c0-1.103-.897-2-2-2H5c-1.103 0-2 .897-2 2v11c0 .736.405 1.375 1 1.722V18H2v2h20v-2h-2v-.278zM5 16V5h14l.002 11H5z"></path>
    </symbol>
    <symbol id="gaming" viewBox="0 0 24 24">
        <path d="M20.937 7.53C19.227 4.119 15.803 2 12 2 6.486 2 2 6.486 2 12s4.486 10 10 10c3.803 0 7.227-2.119 8.937-5.53a1 1 0 0 0-.397-1.316L15.017 12l5.522-3.153c.461-.264.636-.842.398-1.317zm-8.433 3.602a.999.999 0 0 0 0 1.736l6.173 3.525A7.949 7.949 0 0 1 12 20c-4.411 0-8-3.589-8-8s3.589-8 8-8a7.95 7.95 0 0 1 6.677 3.606l-6.173 3.526z"></path>
        <circle cx="11.5" cy="7.5" r="1.5"></circle>
    </symbol>
    <symbol id="VR" viewBox="0 0 24 24">
        <path d="m21.948 11.684-2-6A.997.997 0 0 0 19 5h-3v2h2.279l1.334 4H15c-1.103 0-2 .897-2 2h-2c0-1.103-.897-2-2-2H4.387l1.334-4H8V5H5a.998.998 0 0 0-.948.684l-2 6 .012.004A.928.928 0 0 0 2 12v4c0 1.654 1.346 3 3 3h3c1.654 0 3-1.346 3-3v-1h2v1c0 1.654 1.346 3 3 3h3c1.654 0 3-1.346 3-3v-4a.964.964 0 0 0-.063-.313l.011-.003zM9 16c0 .551-.448 1-1 1H5c-.552 0-1-.449-1-1v-3h5v3zm11 0c0 .551-.448 1-1 1h-3c-.552 0-1-.449-1-1v-3h5v3z">
    </path></symbol>
    <symbol id="minus" viewBox="0 0 24 24">
        <path d="M5 11h14v2H5z"></path>
    </symbol>
    <symbol id="plus" viewBox="0 0 24 24">
        <path d="M19 11h-6V5h-2v6H5v2h6v6h2v-6h6z"></path>
    </symbol>
    <symbol id="telegram" viewBox="0 0 24 24">
        <path d="m20.665 3.717-17.73 6.837c-1.21.486-1.203 1.161-.222 1.462l4.552 1.42 10.532-6.645c.498-.303.953-.14.579.192l-8.533 7.701h-.002l.002.001-.314 4.692c.46 0 .663-.211.921-.46l2.211-2.15 4.599 3.397c.848.467 1.457.227 1.668-.785l3.019-14.228c.309-1.239-.473-1.8-1.282-1.434z"></path>
    </symbol>
    <symbol id="github" viewBox="0 0 24 24">
        <path fill-rule="evenodd" clip-rule="evenodd" d="M12.026 2c-5.509 0-9.974 4.465-9.974 9.974 0 4.406 2.857 8.145 6.821 9.465.499.09.679-.217.679-.481 0-.237-.008-.865-.011-1.696-2.775.602-3.361-1.338-3.361-1.338-.452-1.152-1.107-1.459-1.107-1.459-.905-.619.069-.605.069-.605 1.002.07 1.527 1.028 1.527 1.028.89 1.524 2.336 1.084 2.902.829.091-.645.351-1.085.635-1.334-2.214-.251-4.542-1.107-4.542-4.93 0-1.087.389-1.979 1.024-2.675-.101-.253-.446-1.268.099-2.64 0 0 .837-.269 2.742 1.021a9.582 9.582 0 0 1 2.496-.336 9.554 9.554 0 0 1 2.496.336c1.906-1.291 2.742-1.021 2.742-1.021.545 1.372.203 2.387.099 2.64.64.696 1.024 1.587 1.024 2.675 0 3.833-2.33 4.675-4.552 4.922.355.308.675.916.675 1.846 0 1.334-.012 2.41-.012 2.737 0 .267.178.577.687.479C19.146 20.115 22 16.379 22 11.974 22 6.465 17.535 2 12.026 2z"></path>
    </symbol>
    
</svg> 